<?xml version="1.0" encoding="UTF-8" standalone="no"?>
<!DOCTYPE svg PUBLIC "-//W3C//DTD SVG 20010904//EN"
              "http://www.w3.org/TR/2001/REC-SVG-20010904/DTD/svg10.dtd">

<svg xmlns="http://www.w3.org/2000/svg"
     width="150.542mm" height="157.157mm"
     viewBox="0 0 1707 1782">
  <path id="Selection"
        fill="black" stroke="black" stroke-width="2"
        d="M 843.00,67.46
           C 843.00,67.46 856.00,68.00 856.00,68.00
             856.00,68.00 876.00,68.00 876.00,68.00
             876.00,68.00 904.00,69.91 904.00,69.91
             955.66,73.46 1006.99,82.31 1057.00,95.85
             1248.67,147.75 1418.87,269.39 1527.66,436.00
             1579.27,515.05 1615.50,598.49 1638.37,690.00
             1647.00,724.51 1653.38,759.63 1657.16,795.00
             1657.16,795.00 1660.09,828.00 1660.09,828.00
             1660.09,828.00 1661.00,838.00 1661.00,838.00
             1661.00,838.00 1662.00,857.00 1662.00,857.00
             1662.00,857.00 1662.00,916.00 1662.00,916.00
             1662.00,916.00 1661.00,936.00 1661.00,936.00
             1661.00,936.00 1660.09,946.00 1660.09,946.00
             1660.09,946.00 1654.42,1001.00 1654.42,1001.00
             1648.65,1041.87 1640.19,1082.45 1628.28,1122.00
             1591.60,1243.81 1527.11,1357.92 1439.04,1450.00
             1439.04,1450.00 1415.00,1474.96 1415.00,1474.96
             1326.96,1559.17 1227.68,1620.50 1113.00,1661.31
             1062.01,1679.45 1000.75,1693.73 947.00,1700.15
             947.00,1700.15 893.00,1705.09 893.00,1705.09
             893.00,1705.09 883.00,1706.04 883.00,1706.04
             883.00,1706.04 868.00,1706.04 868.00,1706.04
             868.00,1706.04 856.00,1707.00 856.00,1707.00
             856.00,1707.00 828.00,1707.00 828.00,1707.00
             828.00,1707.00 816.00,1706.04 816.00,1706.04
             816.00,1706.04 803.00,1706.04 803.00,1706.04
             803.00,1706.04 793.00,1705.00 793.00,1705.00
             793.00,1705.00 784.00,1705.00 784.00,1705.00
             784.00,1705.00 756.00,1702.17 756.00,1702.17
             693.65,1695.93 632.16,1681.88 573.00,1661.34
             476.07,1627.70 390.61,1578.53 312.00,1512.56
             265.02,1473.14 216.52,1420.78 180.58,1371.00
             128.76,1299.24 87.34,1219.67 61.02,1135.00
             -2.36,931.09 13.53,711.44 109.25,520.00
             214.08,310.35 400.79,159.04 626.00,96.42
             664.57,85.70 709.19,77.09 749.00,72.84
             749.00,72.84 794.00,69.00 794.00,69.00
             794.00,69.00 810.00,68.00 810.00,68.00
             810.00,68.00 843.00,67.46 843.00,67.46 Z
           M 814.00,160.14
           C 808.18,161.12 806.73,160.99 801.00,161.00
             801.00,161.00 760.00,164.28 760.00,164.28
             711.92,170.07 668.33,178.63 622.00,193.02
             512.73,226.99 413.63,285.93 331.00,364.96
             331.00,364.96 320.01,375.00 320.01,375.00
             320.01,375.00 310.96,385.00 310.96,385.00
             310.96,385.00 299.17,397.00 299.17,397.00
             244.71,457.19 204.15,518.29 170.31,592.00
             139.92,658.19 119.63,732.79 110.72,805.00
             108.40,823.78 106.03,843.09 106.00,862.00
             106.00,862.00 105.00,879.00 105.00,879.00
             105.00,879.00 105.00,912.00 105.00,912.00
             105.00,912.00 105.96,924.00 105.96,924.00
             105.96,924.00 105.96,935.00 105.96,935.00
             105.96,935.00 107.83,958.00 107.83,958.00
             111.28,993.56 116.34,1028.12 124.35,1063.00
             153.51,1190.07 217.89,1308.83 307.96,1403.00
             307.96,1403.00 322.00,1417.99 322.00,1417.99
             402.40,1496.44 499.30,1557.10 606.00,1592.67
             649.97,1607.32 695.02,1618.23 741.00,1624.28
             741.00,1624.28 789.00,1629.09 789.00,1629.09
             789.00,1629.09 799.00,1630.00 799.00,1630.00
             799.00,1630.00 821.00,1631.00 821.00,1631.00
             821.00,1631.00 863.00,1631.00 863.00,1631.00
             863.00,1631.00 882.00,1630.00 882.00,1630.00
             882.00,1630.00 892.00,1629.09 892.00,1629.09
             892.00,1629.09 940.00,1624.28 940.00,1624.28
             985.45,1618.30 1030.47,1607.66 1074.00,1593.33
             1106.94,1582.48 1139.01,1568.74 1170.00,1553.25
             1341.74,1467.38 1472.69,1318.42 1535.66,1137.00
             1554.26,1083.39 1566.52,1027.44 1572.17,971.00
             1572.17,971.00 1575.00,936.00 1575.00,936.00
             1575.00,936.00 1576.00,919.00 1576.00,919.00
             1576.00,919.00 1576.00,873.00 1576.00,873.00
             1576.00,873.00 1575.00,852.00 1575.00,852.00
             1575.00,852.00 1574.09,842.00 1574.09,842.00
             1574.09,842.00 1570.15,802.00 1570.15,802.00
             1565.16,760.23 1555.50,717.15 1543.02,677.00
             1509.23,568.26 1453.67,474.28 1376.09,391.00
             1376.09,391.00 1353.00,367.04 1353.00,367.04
             1258.39,276.54 1144.99,213.37 1018.00,181.63
             987.47,174.00 956.29,168.18 925.00,164.84
             925.00,164.84 892.00,161.91 892.00,161.91
             892.00,161.91 882.00,161.00 882.00,161.00
             882.00,161.00 860.00,160.14 860.00,160.14
             860.00,160.14 814.00,160.14 814.00,160.14 Z
           M 830.00,191.42
           C 840.43,190.15 848.17,191.95 858.00,192.00
             858.00,192.00 872.00,192.00 872.00,192.00
             872.00,192.00 884.00,192.91 884.00,192.91
             884.00,192.91 919.00,195.84 919.00,195.84
             962.90,200.53 1004.74,209.60 1047.00,222.28
             1277.68,291.49 1457.35,479.10 1520.15,711.00
             1531.87,754.29 1537.91,792.52 1542.17,837.00
             1542.17,837.00 1543.09,851.00 1543.09,851.00
             1543.09,851.00 1544.00,861.00 1544.00,861.00
             1544.00,861.00 1545.00,906.00 1545.00,906.00
             1545.00,906.00 1544.04,916.00 1544.04,916.00
             1544.04,916.00 1544.04,930.00 1544.04,930.00
             1544.04,930.00 1543.09,940.00 1543.09,940.00
             1543.09,940.00 1540.16,975.00 1540.16,975.00
             1534.37,1029.17 1521.57,1082.69 1503.31,1134.00
             1428.64,1343.82 1252.35,1510.40 1038.00,1571.57
             999.05,1582.69 959.29,1590.85 919.00,1595.16
             919.00,1595.16 884.00,1598.09 884.00,1598.09
             884.00,1598.09 872.00,1599.00 872.00,1599.00
             872.00,1599.00 859.00,1599.00 859.00,1599.00
             859.00,1599.00 844.00,1599.96 844.00,1599.96
             844.00,1599.96 833.00,1599.96 833.00,1599.96
             833.00,1599.96 823.00,1599.00 823.00,1599.00
             823.00,1599.00 807.00,1599.00 807.00,1599.00
             807.00,1599.00 797.00,1598.09 797.00,1598.09
             797.00,1598.09 762.00,1595.16 762.00,1595.16
             708.99,1589.49 652.06,1576.36 602.00,1558.05
             507.83,1523.61 429.46,1475.35 356.00,1406.91
             356.00,1406.91 322.91,1373.00 322.91,1373.00
             228.23,1271.20 168.37,1144.71 145.43,1008.00
             141.96,987.29 139.52,965.92 138.00,945.00
             138.00,945.00 138.00,936.00 138.00,936.00
             138.00,936.00 137.00,924.00 137.00,924.00
             137.00,924.00 137.00,865.00 137.00,865.00
             137.00,865.00 137.96,854.00 137.96,854.00
             139.03,829.52 141.91,805.20 145.92,781.00
             157.40,711.64 178.95,643.99 210.25,581.00
             296.93,406.54 452.89,276.77 639.00,220.72
             679.07,208.65 725.36,199.33 767.00,195.17
             767.00,195.17 798.00,192.91 798.00,192.91
             798.00,192.91 810.00,192.00 810.00,192.00
             816.66,191.99 823.39,192.36 830.00,191.42 Z
           M 823.00,271.28
           C 809.46,273.23 800.29,273.96 787.00,278.69
             750.02,291.85 721.75,318.06 705.86,354.00
             695.52,377.39 694.71,395.11 695.00,420.00
             695.35,449.94 713.40,485.93 734.04,506.99
             748.55,521.79 766.72,532.54 786.00,539.81
             798.02,544.34 816.16,547.85 829.00,548.00
             850.51,548.25 872.62,544.38 892.00,534.75
             916.74,522.47 934.08,508.38 949.31,485.00
             988.40,424.97 974.06,342.43 917.00,299.13
             903.97,289.24 888.76,281.34 873.00,276.86
             857.33,272.40 839.29,269.77 823.00,271.28 Z
           M 940.96,731.00
           C 947.86,730.42 954.36,728.06 961.00,726.37
             961.00,726.37 992.00,718.42 992.00,718.42
             992.00,718.42 1068.00,699.65 1068.00,699.65
             1068.00,699.65 1186.00,674.21 1186.00,674.21
             1186.00,674.21 1239.00,663.25 1239.00,663.25
             1265.42,654.81 1279.90,632.92 1281.82,606.00
             1282.34,598.69 1279.36,585.68 1276.22,579.00
             1266.02,557.32 1245.93,544.04 1222.00,543.04
             1212.85,542.65 1197.41,546.32 1188.00,548.20
             1188.00,548.20 1130.00,560.00 1130.00,560.00
             1130.00,560.00 1039.00,579.88 1039.00,579.88
             1039.00,579.88 937.00,605.37 937.00,605.37
             937.00,605.37 885.00,619.15 885.00,619.15
             885.00,619.15 852.00,627.78 852.00,627.78
             852.00,627.78 842.00,627.01 842.00,627.01
             842.00,627.01 823.00,628.05 823.00,628.05
             823.00,628.05 789.00,619.37 789.00,619.37
             789.00,619.37 718.00,601.37 718.00,601.37
             657.57,586.26 597.07,572.82 536.00,560.60
             536.00,560.60 481.00,549.75 481.00,549.75
             467.79,547.45 465.19,545.84 451.00,546.00
             423.75,546.32 400.36,566.92 394.24,593.00
             392.70,599.52 392.93,604.39 393.00,611.00
             393.08,617.55 394.35,623.95 396.86,630.00
             403.77,646.63 415.84,659.09 433.00,665.14
             440.92,667.92 452.54,669.52 461.00,671.20
             461.00,671.20 502.00,679.40 502.00,679.40
             502.00,679.40 581.00,695.42 581.00,695.42
             581.00,695.42 684.00,719.87 684.00,719.87
             684.00,719.87 725.00,730.13 725.00,730.13
             728.42,730.98 738.15,732.62 739.99,735.43
             741.17,737.30 740.00,746.00 739.99,749.00
             739.99,749.00 739.99,786.00 739.99,786.00
             739.99,786.00 739.00,803.00 739.00,803.00
             739.00,803.00 739.00,997.00 739.00,997.00
             739.00,997.00 740.10,1019.00 740.10,1019.00
             740.10,1019.00 740.10,1026.00 740.10,1026.00
             740.42,1032.09 738.02,1036.46 735.80,1042.00
             735.80,1042.00 727.20,1064.00 727.20,1064.00
             727.20,1064.00 703.05,1127.00 703.05,1127.00
             703.05,1127.00 627.31,1331.00 627.31,1331.00
             627.31,1331.00 607.58,1386.00 607.58,1386.00
             601.04,1403.47 593.96,1418.99 594.75,1438.00
             596.00,1468.32 622.42,1494.86 653.00,1495.00
             653.00,1495.00 659.00,1495.00 659.00,1495.00
             664.42,1494.93 669.84,1494.01 675.00,1492.33
             690.92,1487.15 702.90,1476.82 710.68,1462.00
             710.68,1462.00 719.05,1440.00 719.05,1440.00
             719.05,1440.00 731.00,1407.00 731.00,1407.00
             731.00,1407.00 768.58,1304.00 768.58,1304.00
             768.58,1304.00 814.42,1181.00 814.42,1181.00
             814.42,1181.00 840.00,1114.00 840.00,1114.00
             840.00,1114.00 842.00,1114.00 842.00,1114.00
             842.00,1114.00 850.58,1137.00 850.58,1137.00
             850.58,1137.00 869.58,1186.00 869.58,1186.00
             869.58,1186.00 923.58,1328.00 923.58,1328.00
             923.58,1328.00 957.19,1419.00 957.19,1419.00
             961.52,1430.40 968.14,1451.78 974.36,1461.00
             995.83,1492.80 1042.89,1497.76 1069.83,1469.91
             1081.64,1457.71 1087.19,1441.77 1087.00,1425.00
             1086.83,1410.83 1080.91,1399.03 1076.34,1386.00
             1076.34,1386.00 1051.05,1317.00 1051.05,1317.00
             1051.05,1317.00 978.58,1126.00 978.58,1126.00
             978.58,1126.00 950.40,1054.00 950.40,1054.00
             947.07,1045.68 938.63,1028.20 939.09,1020.00
             939.09,1020.00 939.96,1013.00 939.96,1013.00
             939.96,1013.00 939.96,999.00 939.96,999.00
             939.96,999.00 939.00,982.00 939.00,982.00
             939.00,982.00 939.00,808.00 939.00,808.00
             939.00,808.00 940.00,793.00 940.00,793.00
             940.00,793.00 940.00,755.00 940.00,755.00
             940.00,755.00 940.96,743.00 940.96,743.00
             940.96,743.00 940.96,731.00 940.96,731.00 Z" />
</svg>
